<?xml version="1.0" standalone="no"?>
<!DOCTYPE svg PUBLIC "-//W3C//DTD SVG 20010904//EN"
 "http://www.w3.org/TR/2001/REC-SVG-20010904/DTD/svg10.dtd">
<svg version="1.0" xmlns="http://www.w3.org/2000/svg"
 width="945.000000pt" height="945.000000pt" viewBox="0 0 945.000000 945.000000"
 preserveAspectRatio="xMidYMid meet">
<metadata>
Created by potrace 1.15, written by Peter Selinger 2001-2017
</metadata>
<g transform="translate(0.000000,945.000000) scale(0.100000,-0.100000)"
fill="#000000" stroke="none">
<path d="M4535 8723 c-16 -2 -102 -13 -190 -24 -87 -10 -162 -23 -165 -27 -3
-5 -43 -16 -90 -26 -47 -10 -89 -22 -95 -26 -5 -4 -46 -18 -90 -30 -44 -12
-84 -26 -90 -30 -5 -4 -35 -15 -65 -25 -48 -15 -87 -32 -200 -84 -14 -6 -52
-27 -85 -46 -33 -19 -77 -43 -97 -52 -21 -9 -38 -20 -38 -24 0 -5 -19 -18 -42
-30 -24 -12 -45 -24 -48 -28 -3 -3 -32 -26 -65 -51 -164 -122 -328 -279 -459
-440 -42 -52 -85 -104 -94 -115 -9 -11 -19 -25 -22 -30 -3 -6 -35 -56 -73
-112 -37 -56 -67 -106 -67 -111 0 -5 -6 -15 -14 -21 -7 -6 -48 -82 -90 -169
-43 -86 -81 -164 -85 -172 -18 -34 -71 -221 -87 -305 -9 -49 -20 -98 -25 -107
-8 -16 -22 -118 -48 -360 -17 -151 -13 -394 9 -588 21 -191 29 -240 40 -255 4
-5 10 -28 14 -50 8 -49 87 -298 96 -305 4 -3 15 -27 26 -55 26 -70 105 -220
158 -301 163 -247 253 -360 412 -519 147 -147 154 -153 250 -224 32 -25 64
-50 69 -56 6 -7 29 -22 53 -34 23 -12 42 -26 42 -31 0 -6 6 -10 13 -10 7 0 33
-13 58 -28 98 -62 251 -136 349 -167 30 -10 57 -21 60 -25 3 -4 45 -17 95 -29
49 -12 94 -26 100 -31 5 -4 57 -16 115 -25 58 -10 107 -21 110 -25 10 -16 474
-53 660 -53 183 0 528 34 540 53 3 4 41 15 85 25 44 9 98 25 120 35 22 10 64
23 93 30 28 7 52 15 52 19 0 4 19 13 42 20 23 7 73 28 112 46 39 18 81 36 94
39 12 4 22 11 22 16 0 4 19 15 41 24 23 9 56 28 74 41 17 14 35 25 38 25 6 0
44 27 131 93 63 48 174 145 231 202 76 77 235 264 283 334 85 122 113 167 173
276 18 33 35 62 39 65 3 3 14 25 25 50 10 25 24 52 30 60 7 8 20 35 29 60 10
25 21 50 26 55 4 6 18 42 30 80 13 39 28 79 35 90 7 11 20 52 30 90 10 39 21
75 25 80 4 6 16 48 25 95 10 47 22 90 27 96 4 6 20 103 34 215 23 179 25 230
21 419 -4 208 -37 507 -57 520 -4 3 -13 32 -20 65 -7 33 -20 78 -30 100 -10
22 -25 67 -35 100 -9 33 -20 62 -24 65 -4 3 -18 32 -31 65 -13 33 -31 71 -40
85 -9 14 -21 36 -28 50 -12 26 -17 34 -64 108 -16 24 -28 46 -28 50 0 4 -20
36 -45 72 -25 36 -56 81 -69 100 -44 66 -230 259 -311 322 -16 13 -37 30 -47
38 -9 8 -35 29 -58 45 -23 17 -50 38 -60 47 -11 9 -36 27 -57 38 -21 12 -63
36 -93 55 -30 19 -75 45 -100 58 -25 13 -54 28 -65 35 -43 25 -172 81 -212 93
-24 7 -43 15 -43 19 0 7 -100 35 -113 32 -5 -1 -59 11 -120 27 -344 92 -788
116 -1110 61 -66 -11 -132 -20 -148 -20 -37 0 -84 -24 -93 -45 -11 -29 -6 -89
9 -119 8 -15 15 -30 15 -31 0 -2 -26 -9 -57 -15 -99 -21 -323 -99 -432 -151
-57 -27 -106 -47 -109 -44 -3 2 -9 70 -14 150 -7 117 -7 150 4 162 32 39 287
134 483 181 165 39 406 82 465 82 25 0 86 7 135 15 50 8 130 15 178 15 49 0
97 5 108 10 21 12 26 45 7 56 -36 22 -391 41 -503 27z m520 -373 c460 -68 894
-241 1225 -487 73 -55 260 -230 260 -244 0 -4 -46 12 -102 36 -57 23 -146 56
-199 74 -78 26 -113 45 -190 102 -265 199 -597 345 -917 404 -155 29 -397 48
-488 39 l-62 -7 -66 49 c-36 27 -66 53 -66 58 0 17 446 0 605 -24z m-1511
-122 c17 -161 21 -261 11 -272 -5 -7 -41 -33 -80 -59 -83 -55 -188 -137 -183
-142 2 -2 44 2 93 10 50 7 113 16 141 19 l51 6 12 -92 c6 -51 14 -107 17 -124
l6 -31 -144 -71 c-258 -127 -541 -301 -698 -428 -42 -34 -67 -48 -71 -41 -10
18 -29 256 -29 359 l0 92 58 75 c140 185 359 417 523 555 66 56 267 196 280
196 4 0 10 -24 13 -52z m801 -339 c22 -6 57 -27 77 -47 l38 -36 -168 -42
c-164 -42 -481 -143 -534 -170 -25 -13 -28 -13 -29 3 0 10 -6 59 -13 108 -7
50 -12 92 -10 94 2 2 32 6 67 8 34 2 136 22 227 43 228 54 271 59 345 39z
m1524 -226 l124 -17 72 -87 c132 -159 256 -350 363 -564 57 -113 124 -267 118
-272 -2 -3 -42 7 -87 21 -254 76 -625 141 -848 147 l-64 2 -24 56 c-14 31 -60
129 -104 217 l-80 162 57 83 c86 126 142 188 208 231 69 45 85 46 265 21z
m-1379 -55 c-25 -6 -38 -13 -30 -16 34 -11 99 -43 104 -50 3 -5 23 -14 45 -22
23 -7 41 -17 41 -21 0 -4 17 -18 38 -30 20 -13 41 -29 45 -36 4 -7 13 -13 20
-13 20 0 207 -187 207 -206 0 -6 9 -19 21 -30 19 -18 20 -19 2 -32 -16 -12
-15 -13 12 -6 17 4 63 20 103 35 40 16 77 29 82 29 11 0 75 -124 125 -241 l33
-76 -106 -12 c-377 -42 -734 -130 -1090 -271 -75 -29 -137 -48 -142 -44 -31
33 -245 822 -228 840 3 3 66 27 141 54 242 88 505 159 592 158 24 0 21 -2 -15
-10z m1835 -50 c100 -34 236 -89 306 -124 72 -36 122 -90 214 -233 205 -317
329 -865 296 -1303 -14 -182 -28 -259 -87 -488 -52 -200 -165 -524 -178 -509
-2 2 0 58 5 124 5 66 11 173 15 238 5 106 8 117 25 117 28 0 84 53 76 73 -3 9
-27 32 -54 51 -46 33 -47 35 -44 83 1 26 9 93 17 147 25 171 28 325 9 511 -9
93 -18 172 -21 174 -2 2 -1 -52 3 -121 7 -142 -1 -185 -23 -128 -12 33 -13 31
-9 -40 4 -69 3 -71 -6 -30 -34 155 -74 370 -68 370 3 0 24 -6 45 -14 54 -19
136 -28 152 -17 24 15 8 45 -43 79 -28 18 -59 40 -70 50 -11 9 -50 32 -86 51
l-66 35 -57 145 c-100 252 -214 463 -360 665 -93 131 -93 131 -70 122 10 -5
46 -17 79 -28z m-2685 -211 c0 -2 9 -55 20 -118 26 -141 76 -353 135 -565 49
-177 51 -184 33 -184 -48 0 -787 -434 -879 -516 -14 -13 -18 -8 -37 43 -30 85
-98 326 -122 433 -30 136 -60 292 -60 315 0 65 370 322 735 512 147 76 175 89
175 80z m-1116 -352 l7 -150 -61 -75 c-34 -41 -82 -104 -106 -140 -24 -36 -44
-58 -44 -49 0 40 32 195 56 270 39 125 126 323 135 307 4 -7 10 -80 13 -163z
m3399 -311 c204 -22 446 -77 624 -141 l72 -25 30 -93 c63 -196 121 -572 91
-590 -9 -6 -11 -4 -5 4 4 7 4 38 0 69 -4 31 -10 50 -12 42 -3 -8 -13 -21 -22
-29 -15 -13 -15 -13 2 -8 27 10 21 -30 -8 -49 -14 -9 -25 -21 -25 -27 0 -6
-22 -31 -48 -56 -27 -26 -51 -54 -55 -63 -7 -20 -22 -23 -32 -8 -7 11 33 60
49 60 6 0 16 12 23 26 12 26 12 26 -7 9 -42 -38 -101 -95 -98 -95 11 0 120
-50 110 -50 -7 0 -54 12 -104 26 -113 31 -348 79 -493 99 -60 9 -110 17 -110
18 -1 1 -17 58 -34 127 -59 223 -153 520 -223 698 -15 40 -28 75 -28 77 0 7
145 -3 303 -21z m-441 -161 c75 -201 235 -700 226 -708 -2 -2 -64 -4 -139 -6
l-135 -4 -51 51 c-56 58 -108 88 -180 104 -51 12 -127 5 -104 -10 10 -6 10 -9
1 -15 -6 -4 -20 -28 -31 -52 -11 -25 -31 -60 -46 -77 l-26 -31 29 -6 c16 -4
26 -7 23 -8 -145 -28 -426 -115 -573 -177 -92 -39 -102 -40 -109 -16 -3 9 -30
74 -61 144 -62 144 -139 344 -202 531 l-43 128 57 25 c307 138 705 250 1012
284 52 5 109 12 125 14 17 1 59 4 95 5 l66 1 66 -177z m-2922 80 c0 -101 107
-564 165 -716 42 -107 4 -86 -93 51 -45 64 -96 133 -113 152 l-30 35 5 -150
c3 -82 10 -184 16 -226 12 -74 11 -78 -11 -109 -33 -44 -33 -109 0 -144 14
-14 32 -26 42 -26 23 0 34 -16 49 -75 58 -214 245 -565 396 -742 44 -51 53
-76 34 -88 -5 -3 -10 -17 -10 -31 0 -22 3 -24 53 -24 50 0 55 -2 102 -51 117
-120 327 -274 497 -364 85 -45 301 -136 351 -149 16 -4 27 -11 25 -16 -7 -20
-104 -130 -115 -130 -24 0 -162 54 -278 109 -369 176 -706 472 -937 826 -208
317 -321 635 -384 1080 -17 123 -30 552 -20 639 7 55 8 56 41 56 25 0 52 15
116 64 46 36 87 65 92 65 4 1 7 -16 7 -36z m1393 -475 c61 -181 169 -473 216
-587 17 -41 31 -75 31 -77 0 -2 -39 -24 -87 -50 -213 -115 -460 -274 -627
-403 -103 -79 -89 -82 -162 39 -81 134 -224 437 -224 474 0 7 21 17 47 24 l46
13 -57 54 c-31 30 -64 67 -72 82 l-16 28 6 -31 c3 -18 8 -45 11 -60 3 -16 -3
-6 -13 21 -38 99 -46 83 95 187 224 164 380 261 677 417 32 17 62 31 66 31 4
0 33 -73 63 -162z m1839 -643 c27 -112 79 -395 77 -412 -1 -4 -9 23 -18 61
-17 69 -33 91 -44 62 -4 -11 -1 -13 11 -10 14 5 13 3 -2 -10 -11 -9 -25 -16
-31 -16 -7 0 -22 -9 -35 -20 -13 -12 -30 -18 -37 -16 -7 3 -13 0 -13 -6 0 -6
-2 -9 -5 -6 -3 3 1 34 10 69 8 35 15 91 15 125 0 67 4 60 -109 206 l-64 83 29
7 c16 3 65 5 108 5 l80 -2 28 -120z m451 70 c82 -14 160 -31 175 -36 15 -6 54
-17 87 -25 60 -13 60 -13 10 -8 -27 3 -68 12 -90 20 -58 20 -77 17 -113 -16
-18 -16 -36 -30 -40 -30 -4 0 -21 -12 -39 -27 -54 -49 -73 -63 -73 -55 0 4 -5
-1 -11 -10 -5 -10 -15 -18 -21 -18 -6 0 -26 -11 -45 -26 -18 -14 -33 -20 -33
-15 0 11 10 21 45 46 14 10 7 10 -22 -3 -39 -16 -42 -20 -38 -47 3 -16 7 -43
10 -59 2 -16 1 -25 -4 -20 -4 5 -16 58 -26 118 -9 59 -25 139 -36 177 -10 38
-19 70 -19 72 0 6 130 -12 283 -38z m-3323 -202 c52 -129 212 -431 259 -486
15 -18 14 -18 -11 -6 -15 6 -25 15 -23 19 8 12 -75 130 -88 125 -16 -6 -60 31
-53 44 4 5 1 13 -5 17 -8 4 -9 3 -5 -4 12 -19 -9 -14 -28 7 -9 10 -16 25 -14
32 2 8 -3 13 -11 11 -16 -3 -51 26 -51 42 0 6 5 4 11 -4 8 -12 10 -12 7 -1 -6
21 -38 23 -39 3 0 -10 -7 8 -15 38 -7 30 -11 71 -8 90 6 45 36 130 45 130 4 0
17 -26 29 -57z m1425 -176 c22 -45 57 -109 78 -144 20 -34 37 -73 37 -87 0
-22 -16 -72 -103 -311 -14 -38 -32 -95 -40 -125 -11 -40 -16 -47 -16 -27 l-1
29 -72 -5 c-40 -2 -61 -2 -45 0 15 2 27 9 27 15 0 10 -46 7 -102 -7 -17 -5
-28 -3 -28 3 0 6 8 13 18 15 9 3 -5 3 -33 1 -37 -2 -45 -1 -30 6 15 7 10 8
-18 4 -23 -4 -43 -2 -52 6 -8 6 -23 9 -34 5 -27 -8 -77 5 -60 16 23 14 0 23
-59 25 -76 3 -74 2 -66 15 5 9 -1 10 -19 5 -22 -5 -35 1 -69 31 l-42 38 34
-44 c19 -24 53 -64 75 -89 22 -25 35 -43 29 -41 -6 2 -44 42 -85 89 -41 47
-76 87 -79 90 -3 3 -20 24 -38 46 l-32 41 92 74 c147 118 324 230 508 323 94
47 174 86 178 85 4 0 25 -37 47 -82z m2451 -144 c-10 -301 -10 -303 -71 -392
-36 -54 -57 -76 -71 -74 -32 2 -208 54 -218 64 -6 6 2 21 21 41 59 62 184 260
253 402 39 78 70 147 70 154 0 7 5 12 12 12 8 0 9 -53 4 -207z m-332 -529 c57
-9 109 -20 116 -24 20 -12 -78 -120 -198 -221 -95 -79 -300 -224 -307 -217 -2
1 -1 61 2 131 l6 128 91 78 c50 44 104 93 120 110 34 36 35 36 170 15z m-531
-440 l-8 -109 -75 -37 c-111 -56 -311 -139 -325 -136 -18 5 -135 142 -127 150
4 3 52 23 107 43 101 37 348 160 394 196 38 30 44 13 34 -107z m-684 -258 c34
-41 57 -77 53 -80 -22 -14 -255 -37 -423 -43 l-186 -6 -107 72 c-58 40 -108
76 -110 79 -2 4 107 8 242 9 198 1 267 5 347 21 55 10 105 20 112 21 6 0 39
-32 72 -73z m-924 -32 c64 -42 114 -78 112 -81 -7 -6 -203 15 -264 29 -29 6
-53 15 -53 19 0 8 78 109 85 109 2 0 56 -34 120 -76z"/>
<path d="M5720 2710 c-235 -32 -422 -122 -575 -275 -221 -220 -317 -527 -275
-875 29 -233 114 -406 274 -557 121 -114 219 -167 394 -215 65 -18 107 -21
262 -22 246 -1 392 28 582 116 l88 41 0 453 0 454 -365 0 -366 0 3 -142 3
-143 193 -3 192 -2 0 -209 0 -210 -52 -19 c-127 -47 -306 -59 -428 -28 -208
53 -356 212 -410 440 -23 95 -28 282 -11 371 47 241 201 422 428 502 73 26 88
28 238 27 189 -1 268 -18 409 -89 49 -25 93 -42 98 -37 5 5 7 82 6 173 l-3
164 -81 27 c-45 15 -121 34 -170 43 -108 19 -345 27 -434 15z"/>
<path d="M8236 2709 c-110 -15 -185 -37 -275 -82 -205 -100 -310 -288 -282
-504 12 -87 31 -140 77 -208 72 -109 186 -189 459 -324 99 -49 201 -105 227
-125 103 -79 131 -197 71 -294 -78 -127 -326 -164 -578 -85 -83 26 -192 81
-215 108 -7 8 -19 15 -26 15 -11 0 -14 -33 -14 -174 l0 -174 48 -20 c103 -44
321 -82 467 -82 110 0 262 22 347 50 242 82 374 272 355 514 -13 181 -116 325
-327 458 -60 39 -116 68 -292 152 -189 92 -257 170 -246 285 6 61 41 111 106
152 136 86 436 76 608 -22 28 -16 57 -29 63 -29 8 0 11 49 11 164 l0 164 -42
17 c-104 41 -393 65 -542 44z"/>
<path d="M901 1752 c-193 -516 -351 -944 -351 -950 0 -9 45 -12 182 -10 l183
3 80 237 80 238 355 0 355 0 85 -240 85 -240 177 0 c100 0 179 4 183 9 3 6
-151 432 -343 948 l-349 938 -185 3 -186 2 -351 -938z m539 537 c0 -5 56 -172
125 -370 69 -198 125 -362 125 -364 0 -3 -117 -5 -260 -5 -143 0 -260 3 -260
6 0 4 56 169 125 368 69 200 125 368 125 375 0 7 5 9 10 6 6 -3 10 -11 10 -16z"/>
<path d="M6915 2678 c-3 -7 -4 -434 -3 -948 l3 -935 170 0 170 0 0 945 0 945
-168 3 c-128 2 -169 0 -172 -10z"/>
<path d="M3182 2170 c-93 -20 -199 -103 -241 -189 l-16 -34 -5 99 -5 99 -162
3 -163 2 0 -680 0 -680 163 2 162 3 5 400 c5 378 6 403 26 457 44 114 121 196
208 219 50 14 135 6 178 -15 58 -30 58 -30 58 138 l0 154 -27 10 c-41 16 -132
22 -181 12z"/>
<path d="M4074 2165 c-260 -59 -452 -248 -514 -506 -28 -116 -28 -315 0 -423
53 -209 208 -375 412 -442 76 -25 97 -28 238 -28 166 0 222 9 333 59 l57 25 0
145 c0 87 -4 145 -10 145 -5 0 -36 -17 -69 -39 -83 -53 -168 -75 -273 -69
-202 10 -337 139 -370 351 -32 205 63 407 230 489 55 28 78 33 157 36 110 5
182 -12 267 -64 32 -19 62 -32 68 -29 6 4 10 66 10 155 l0 149 -82 27 c-73 24
-102 27 -238 30 -108 2 -174 -1 -216 -11z"/>
</g>
</svg>
